<svg xmlns="http://www.w3.org/2000/svg" width="1052" height="578" viewBox="0 0 1052 578">
  <g id="bintang" transform="translate(-146 -56)">
    <circle id="Ellipse_5" data-name="Ellipse 5" cx="11" cy="11" r="11" transform="translate(276 133)" fill="#f3d1ff"/>
    <circle id="Ellipse_6" data-name="Ellipse 6" cx="8.5" cy="8.5" r="8.5" transform="translate(403 278)" fill="#f3d1ff"/>
    <circle id="Ellipse_7" data-name="Ellipse 7" cx="4.5" cy="4.5" r="4.5" transform="translate(472 269)" fill="#f3d1ff"/>
    <circle id="Ellipse_8" data-name="Ellipse 8" cx="4.5" cy="4.5" r="4.5" transform="translate(668 193)" fill="#f3d1ff"/>
    <circle id="Ellipse_9" data-name="Ellipse 9" cx="11.5" cy="11.5" r="11.5" transform="translate(844 317)" fill="#f3d1ff"/>
    <circle id="Ellipse_10" data-name="Ellipse 10" cx="6" cy="6" r="6" transform="translate(991 278)" fill="#f3d1ff"/>
    <circle id="Ellipse_11" data-name="Ellipse 11" cx="6" cy="6" r="6" transform="translate(1066 80)" fill="#f3d1ff"/>
    <circle id="Ellipse_12" data-name="Ellipse 12" cx="6" cy="6" r="6" transform="translate(671 56)" fill="#f3d1ff"/>
    <circle id="Ellipse_13" data-name="Ellipse 13" cx="6" cy="6" r="6" transform="translate(1186 622)" fill="#f3d1ff"/>
    <circle id="Ellipse_14" data-name="Ellipse 14" cx="6" cy="6" r="6" transform="translate(838 491)" fill="#f3d1ff"/>
    <circle id="Ellipse_15" data-name="Ellipse 15" cx="6" cy="6" r="6" transform="translate(146 561)" fill="#f3d1ff"/>
    <circle id="Ellipse_16" data-name="Ellipse 16" cx="6" cy="6" r="6" transform="translate(276 422)" fill="#f3d1ff"/>
  </g>
</svg>
