<svg xmlns="http://www.w3.org/2000/svg" width="287.736" height="355.334" viewBox="0 0 287.736 355.334">
  <g id="Group_2" data-name="Group 2" transform="translate(-331.951 -143.029)">
    <path id="kaki_kiri" data-name="kaki kiri" d="M429.18,507.007c-1.152,6.157,2.21,34.63,0,37.1s-18.81-5.286-25.27-1.954-6.923,13.254.954,16.037,26.93-.372,29.984-2.95a5.161,5.161,0,0,0,2.716-3.472c2.71-9.864-.467-38.757-1.571-44.758C434.742,500.21,430.332,500.849,429.18,507.007Z" transform="translate(32.011 -60.908)" fill="#9a5aba"/>
    <path id="kaki_kanan" data-name="kaki kanan" d="M409.064,507.007c1.226,6.157-2.351,34.63,0,37.1s20.013-5.286,26.887-1.954,7.366,13.254-1.016,16.037-28.653-.372-31.9-2.95a5.27,5.27,0,0,1-2.89-3.472c-2.883-9.864.5-38.757,1.671-44.758C403.146,500.21,407.838,500.849,409.064,507.007Z" transform="translate(85.252 -60.908)" fill="#9a5aba"/>
    <g id="t_kiri" data-name="t kiri" transform="translate(331.951 322.493)">
      <path id="Path_1" data-name="Path 1" d="M33.116,8c14.628-4.334,29.238-6.322,29.2,0s-5.978,4.28-20.246,6.575C33.268,17,26.223,28.775,20.4,38.805c-2.777,4.778-7.638,11.926-7.912,13.915-.813,5.9-.523,12.038-6.493,10.36s-1.1-10.449,0-12.072C10.441,37.492,18.488,12.335,33.116,8Z" transform="translate(2.633 -3.971)" fill="#9a5aba"/>
      <g id="Group_1" data-name="Group 1" transform="translate(0 53.767)">
        <path id="Path_3" data-name="Path 3" d="M.94.006C2.127-.1,2.094,1.142,2.094,3.994S2,7.062.94,7.214.027,6.909.027,4.057-.246.106.94.006Z" transform="translate(7.368 3.053) rotate(16)" fill="#9a5aba"/>
        <path id="Path_6" data-name="Path 6" d="M.94.005c1.186-.1,1.153,1.1,1.153,3.845S2,6.808.94,6.955.027,6.661.027,3.911-.246.1.94.005Z" transform="translate(6.013 1.814) rotate(39)" fill="#9a5aba"/>
        <path id="Path_7" data-name="Path 7" d="M.94.005c1.186-.1,1.153,1.1,1.153,3.866S2,6.845.94,6.993.027,6.7.027,3.932-.246.1.94.005Z" transform="matrix(0.438, 0.899, -0.899, 0.438, 6.308, 0)" fill="#9a5aba"/>
        <path id="Path_5" data-name="Path 5" d="M.94.006c1.186-.1,1.153,1.13,1.153,3.966S2,7.023.94,7.174s-.913-.3-.913-3.14S-.246.106.94.006Z" transform="matrix(0.974, -0.225, 0.225, 0.974, 9.125, 2.778)" fill="#9a5aba"/>
        <path id="Path_4" data-name="Path 4" d="M.94.006C2.127-.1,2.094,1.253,2.094,4.383S2,7.75.94,7.917.027,7.582.027,4.452-.246.117.94.006Z" transform="matrix(0.616, -0.788, 0.788, 0.616, 10.957, 2.513)" fill="#9a5aba"/>
      </g>
    </g>
    <g id="tkanan" transform="translate(554.736 316.883)">
      <path id="Path_1-2" data-name="Path 1" d="M32.278,8C17.651,3.667,3.041,1.679,3.076,8s5.978,4.28,20.246,6.575C32.126,17,39.171,28.775,45,38.805c2.777,4.778,7.638,11.926,7.912,13.915.813,5.9.523,12.038,6.493,10.36s1.1-10.449,0-12.072C54.953,37.492,46.906,12.335,32.278,8Z" transform="translate(-3.076 -3.971)" fill="#9a5aba"/>
      <g id="Group_1-2" data-name="Group 1" transform="translate(46.444 53.767)">
        <path id="Path_3-2" data-name="Path 3" d="M.94,7.235c1.186.1,1.153-1.136,1.153-3.988S2,.178.94.026.027.331.027,3.183-.246,7.134.94,7.235Z" transform="translate(13.134 10.013) rotate(164)" fill="#9a5aba"/>
        <path id="Path_6-2" data-name="Path 6" d="M.94,6.975c1.186.1,1.153-1.1,1.153-3.845S2,.172.94.025.027.319.027,3.069-.246,6.877.94,6.975Z" transform="translate(16.886 7.238) rotate(141)" fill="#9a5aba"/>
        <path id="Path_7-2" data-name="Path 7" d="M.94,7.012c1.186.1,1.153-1.1,1.153-3.866S2,.173.94.025.027.321.027,3.085-.246,6.915.94,7.012Z" transform="matrix(-0.438, 0.899, -0.899, -0.438, 18.507, 3.076)" fill="#9a5aba"/>
        <path id="Path_5-2" data-name="Path 5" d="M.94,7.194c1.186.1,1.153-1.13,1.153-3.966S2,.177.94.026s-.913.3-.913,3.14S-.246,7.094.94,7.194Z" transform="translate(7.762 9.793) rotate(-167)" fill="#9a5aba"/>
        <path id="Path_4-2" data-name="Path 4" d="M.94,7.939c1.186.111,1.153-1.247,1.153-4.376S2,.2.94.028.027.363.027,3.493-.246,7.828.94,7.939Z" transform="matrix(-0.616, -0.788, 0.788, -0.616, 1.289, 7.405)" fill="#9a5aba"/>
      </g>
    </g>
    <g id="kuping" transform="translate(393.627 143.029)">
      <path id="kuping_kanan" data-name="kuping kanan" d="M12.444,0c7.745,0,5.591,18.238,5.591,33.578S20.189,61.36,12.444,61.36,0,48.337,0,32.183,4.7,0,12.444,0Z" transform="translate(161.675 0) rotate(36)" fill="#9b56bc"/>
      <path id="kuping_kiri" data-name="kuping kiri" d="M4.329,0c7.745,0,11.747,15.942,11.747,31.282s-4,30.078-11.747,30.078S1.594,48.566,1.594,32.412-3.417,0,4.329,0Z" transform="matrix(0.829, -0.559, 0.559, 0.829, 0, 10.958)" fill="#9b56bc"/>
    </g>
    <path id="bada" d="M99.328,0c17.907,0,40.273,10.1,54.858,22.22,28.7,23.844,34.138,65.1,34.138,116.019,0,49.32-6.682,97.888-34.138,122.426-14.923,13.337-40.574,20.369-59.61,20.369-18.552,0-38.589-11.825-53.461-24.71C13.214,232.15,9.868,188.246,9.868,138.239c0-50.083,3-91.631,31.247-116.019C55.686,9.639,80.829,0,99.328,0Z" transform="translate(382.12 169.451)" fill="#bc6ae6"/>
    <g id="mulut" transform="translate(434.181 354.354)">
      <path id="dalam" d="M48.192-8.268C81.269-7.893,97.851,15.908,97.851,31.6c0,10.953-10.214,17.924-25.165,13.238-6.131-1.922-7.885-9.4-20.324-10.576C39.706,34.17,42.827,43.089,27.883,47.5,13.913,51.843,3.517,42.877,3.517,32.615,3.517,16.923,15.116-8.642,48.192-8.268Z" transform="translate(-3.517 8.272)" fill="#6a3584"/>
      <path id="lidah" d="M31.382,10.365s6.372-7.906,13.9-6.007c10.7,2.187,9.743,13.68,9.743,21.832-5.6,7.514-10.753-9.13-20.905-8.485S10.708,35.575,8.044,26.19c0-6.48.732-19.808,7.949-21.832C25.94,1.186,31.382,10.365,31.382,10.365Z" transform="translate(15.618 25.129)" fill="#d9345a"/>
      <g id="gigi" transform="translate(26.832 1.821)">
        <rect id="gigi-2" data-name="gigi" width="12.021" height="16.829" rx="6.01" fill="#fff"/>
        <rect id="gigi-3" data-name="gigi" width="9.617" height="13.624" rx="4.808" transform="translate(13.624)" fill="#fff"/>
        <rect id="gigi-4" data-name="gigi" width="9.617" height="16.028" rx="4.808" transform="translate(26.446 0.801)" fill="#fff"/>
      </g>
      <path id="border" d="M48.054-9.487c33.881.346,46.769,23.129,46.769,37.637-1.228,15.724-19.743,13.066-25.789,9.64s-8.71-11.246-20.043-9.64c-9.113.707-6.723,8.85-22.03,12.931C12.651,45.093,3.967,37.637,3.967,28.149,3.967,13.642,14.173-9.834,48.054-9.487Z" transform="translate(-2.004 12.158)" fill="none" stroke="#fcca20" stroke-width="11"/>
    </g>
    <g id="mata" transform="translate(431.362 204.712)">
      <ellipse id="mata-2" data-name="mata" cx="50.487" cy="48.083" rx="50.487" ry="48.083" transform="translate(0 0)" fill="#fff" stroke="#9a5aba" stroke-width="10"/>
      <circle id="pupil" cx="15.627" cy="15.627" r="15.627" transform="translate(36.062 28.85)" fill="#483552"/>
    </g>
    <g id="tai_lalat" data-name="tai lalat" transform="translate(423.348 267.22)">
      <circle id="tl" cx="4.808" cy="4.808" r="4.808" transform="translate(99.372 49.686)" fill="#9a5aba"/>
      <circle id="tl-2" data-name="tl" cx="2.003" cy="2.003" r="2.003" transform="translate(121.009)" fill="#9a5aba"/>
      <circle id="tl-3" data-name="tl" cx="1.603" cy="1.603" r="1.603" transform="translate(0 108.187)" fill="#9a5aba"/>
      <circle id="tl-4" data-name="tl" cx="4.808" cy="4.808" r="4.808" transform="translate(0 54.494)" fill="#9a5aba"/>
    </g>
    <path id="poni" d="M465.179,186.337c4.442-11.231,23.842-14.8,40.394-14.359s34.462,7.649,39.271,11.089,5.709,18.085-3.743,17.833-13.946-17.833-13.946-17.833,3.334,15.154-6.267,14.288-15.316-14.288-15.316-14.288-2.72,19.916-16.077,21.822S460.736,197.567,465.179,186.337Z" transform="translate(-27.909 -6.544)" fill="#ffc557"/>
  </g>
</svg>
